<svg xmlns="http://www.w3.org/2000/svg" viewBox="0 0 64 64" width="64" height="64"><rect width="64" height="64" rx="12" fill="#0a1526"/><defs><linearGradient id="g" x1="0" y1="0" x2="1" y2="1"><stop offset="0" stop-color="#f7e98e"/><stop offset=".5" stop-color="#e6c558"/><stop offset="1" stop-color="#c79a3a"/></linearGradient></defs><g transform="translate(6.0,18.2) scale(0.1106)"><path fill="url(#g)" d="M 34 28.877 C 34 29.674, 75.524 30.978, 102.412 31.025 C 113.735 31.044, 117.659 31.437, 122.406 33.025 C 132.320 36.341, 138.573 42.116, 143.428 52.440 C 147.662 61.442, 149.468 70.158, 149.450 81.500 C 149.429 94.511, 147.076 103.713, 141.587 112.250 C 138.174 117.557, 136.454 118.365, 125 120.046 C 120.875 120.651, 115.025 121.835, 112 122.677 C 100.169 125.968, 86.346 130.256, 83.250 131.595 C 81.463 132.368, 78.425 133.675, 76.500 134.500 C 68.706 137.840, 65.129 139.638, 57.171 144.212 C 52.590 146.845, 48.634 149, 48.379 149 C 48.124 149, 47.372 149.459, 46.708 150.020 C 46.044 150.581, 41.225 154.042, 36 157.712 C 26.643 164.284, 0.972 188.306, 2.101 189.434 C 2.419 189.752, 3.764 189.078, 5.090 187.935 C 6.415 186.793, 8.625 184.877, 10 183.679 C 22.656 172.647, 45.506 159.721, 61.500 154.546 C 69.713 151.889, 79.596 149.097, 82.500 148.614 C 84.150 148.339, 88.875 147.191, 93 146.061 C 102.664 143.415, 122.918 139.335, 130.836 138.439 C 136.446 137.804, 137.371 137.979, 140.961 140.356 C 145.918 143.636, 152.228 151.928, 154.855 158.616 C 155.961 161.430, 157.435 168.298, 158.131 173.877 C 161.537 201.162, 151.500 220.468, 129.917 228.150 C 123.660 230.377, 122.368 230.444, 78.193 230.797 C 44.181 231.070, 32.984 231.452, 33.278 232.330 C 33.569 233.202, 46.244 233.500, 83.084 233.500 C 136.609 233.500, 135.917 233.560, 149.500 227.721 C 161.051 222.755, 175.414 210.902, 179.534 202.935 C 184.271 193.774, 185.688 183.110, 183.539 172.785 C 180.173 156.608, 173.475 147.757, 158.264 139.383 C 155.385 137.797, 153.022 136.229, 153.014 135.898 C 152.986 134.714, 195.091 131, 208.545 131 C 213.583 131, 213.071 130.296, 217.643 143.500 C 218.977 147.350, 220.481 151.400, 220.987 152.500 C 222.103 154.929, 231.059 180.355, 233.490 188 C 234.452 191.025, 235.787 194.850, 236.455 196.500 C 237.781 199.773, 238.221 200.997, 244.179 218 C 246.395 224.325, 248.666 230.063, 249.226 230.750 C 250.546 232.369, 255.453 232.364, 256.799 230.742 C 257.373 230.050, 258.505 227.688, 259.313 225.492 C 261.885 218.508, 267.186 203.843, 271.057 193 C 281.493 163.767, 283.095 159.348, 283.924 157.500 C 284.417 156.400, 286.261 151.225, 288.021 146 C 289.781 140.775, 291.600 136.094, 292.063 135.598 C 293.127 134.456, 316.661 136.995, 318.465 138.446 C 319.185 139.026, 320.984 142.875, 322.463 147 C 323.942 151.125, 326.954 159.450, 329.156 165.500 C 331.358 171.550, 333.409 177.625, 333.714 179 C 334.019 180.375, 334.589 181.950, 334.981 182.500 C 335.373 183.050, 337.177 187.775, 338.991 193 C 340.804 198.225, 343.823 206.550, 345.699 211.500 C 347.575 216.450, 349.836 222.663, 350.725 225.306 C 352.474 230.510, 354.472 232.212, 357.807 231.340 C 360.158 230.725, 359.858 231.429, 370.968 200.500 C 374.919 189.500, 378.765 178.925, 379.514 177 C 382.673 168.883, 387 156.268, 387 155.178 C 387 153.544, 388.817 153.699, 395.093 155.870 C 407.508 160.163, 427.384 171.143, 437.500 179.297 C 443.892 184.448, 462 202.718, 462 204.015 C 462 204.557, 462.423 205, 462.941 205 C 466.907 205, 446.271 181.858, 428.500 166.377 C 422.466 161.120, 405.698 149, 404.460 149 C 402.911 149, 393 141.665, 393 140.519 C 393 139.738, 394.625 134.689, 396.611 129.300 C 398.598 123.910, 400.815 117.700, 401.540 115.500 C 403.062 110.875, 410.216 91.013, 415.587 76.500 C 417.622 71, 421.283 60.654, 423.721 53.509 C 426.160 46.364, 428.511 40.064, 428.947 39.509 C 429.383 38.954, 430.043 36.813, 430.415 34.750 C 431.561 28.388, 428.583 30.103, 426.073 37.250 C 424.866 40.687, 423.493 44.400, 423.021 45.500 C 422.550 46.600, 420.810 51.325, 419.156 56 C 415.623 65.985, 405.175 94.830, 404.305 97 C 403.975 97.825, 402.468 101.875, 400.956 106 C 399.445 110.125, 396.542 118, 394.505 123.500 C 392.469 129, 390.563 134.549, 390.269 135.832 C 389.976 137.115, 389.189 138.374, 388.522 138.630 C 387.854 138.886, 383.076 137.225, 377.904 134.938 C 367.366 130.278, 349.164 124, 346.191 124 C 343.475 124, 342.352 122.338, 339.350 113.878 C 337.910 109.820, 335.044 101.775, 332.982 96 C 330.919 90.225, 327.401 80.325, 325.165 74 C 322.928 67.675, 319.021 56.875, 316.482 50 C 313.943 43.125, 311.371 36.038, 310.765 34.250 L 309.664 31 295.332 31 C 287.449 31, 281 31.217, 281 31.483 C 281 32.119, 287.148 49.614, 290.494 58.500 C 291.943 62.350, 294.628 69.775, 296.459 75 C 298.291 80.225, 300.287 85.767, 300.895 87.315 C 302.870 92.346, 302.197 96.475, 298.005 105.033 C 297.592 105.876, 296.943 107.982, 296.563 109.714 C 295.378 115.107, 294.791 115.219, 276.857 113.490 C 267.861 112.623, 254.926 111.595, 248.113 111.207 L 235.726 110.500 230.784 97 C 222.098 73.268, 216.926 58.834, 212.332 45.500 C 209.868 38.350, 207.211 32.001, 206.428 31.391 C 204.943 30.235, 179.650 30.016, 178.517 31.150 C 177.937 31.730, 194.999 80.709, 197.010 84.236 C 197.555 85.191, 198 86.509, 198 87.164 C 198 88.513, 203.555 104.317, 205.235 107.748 C 205.841 108.985, 206.148 110.177, 205.918 110.398 C 205.688 110.618, 197.175 111.538, 187 112.441 C 176.825 113.344, 166.813 114.347, 164.750 114.670 C 160.382 115.352, 159.931 114.185, 163.250 110.789 C 175.263 98.502, 178.501 76.108, 170.857 58.187 C 169.845 55.815, 168.451 53.229, 167.759 52.440 C 167.066 51.651, 164.925 49.065, 163 46.692 C 158.698 41.390, 154.444 38.294, 146 34.318 C 133.188 28.286, 129.730 27.958, 79.474 28.020 C 54.463 28.051, 34 28.437, 34 28.877 M 301.762 107.750 C 300.379 111.463, 299.615 114.901, 300.065 115.391 C 300.514 115.881, 303.209 116.506, 306.052 116.779 C 311.110 117.265, 311.208 117.224, 310.561 114.888 C 309.251 110.160, 305.521 101, 304.906 101 C 304.560 101, 303.145 104.037, 301.762 107.750 M 244.012 132.606 C 244.019 133.648, 246.081 139.900, 248.594 146.500 C 251.107 153.100, 253.555 159.850, 254.033 161.500 C 254.967 164.721, 259.724 178.382, 262.711 186.423 C 263.717 189.131, 265.017 191.506, 265.599 191.700 C 266.182 191.894, 268.270 187.429, 270.240 181.776 C 272.210 176.124, 276.805 163.435, 280.452 153.577 C 284.098 143.719, 286.879 135.126, 286.631 134.481 C 286.337 133.715, 281.559 133.074, 272.841 132.631 C 265.503 132.258, 256.012 131.673, 251.750 131.332 C 244.591 130.760, 244.001 130.857, 244.012 132.606 M 350.653 144.680 C 350.333 145.001, 350.605 146.216, 351.257 147.381 C 351.910 148.547, 352.960 151.300, 353.590 153.500 C 354.219 155.700, 356.558 162.450, 358.786 168.500 C 361.015 174.550, 363.910 182.425, 365.219 186 C 366.529 189.575, 368.028 192.299, 368.550 192.052 C 369.336 191.682, 377.176 171.771, 382.443 156.770 C 384.086 152.089, 383.594 151.646, 374.500 149.623 C 370.650 148.766, 365.250 147.443, 362.500 146.681 C 355.282 144.683, 351.320 144.014, 350.653 144.680"/></g></svg>